*******************************************************************************
                        Undead Apocalypse (2012) WEBRip
*******************************************************************************

-------------------------------------------------------------------------------
                              General Information
-------------------------------------------------------------------------------
Type.................: Movie



Video Format.........: AVI
Video Bitrate........: 1596
Resolution...........: 640 x 360
Color................: 8 bit
FPS..................: 24.000
Source...............: WEB 16:9
Original Format......: NTSC
Genre................: Horror
IMDb Rating..........: 5.8
Movie Information....: http://www.imdb.com/title/tt2173566/

-------------------------------------------------------------------------------
                               Post Information
-------------------------------------------------------------------------------
Posted by............: RadioResearch
Posted on............: 4/19/2013

-------------------------------------------------------------------------------
                                 Release Notes
-------------------------------------------------------------------------------
SEEDBOX SUPPORTED!!

A bio-attack by Islamic extremist terrorists causes a sudden zombie outbreak. A 
small group of survivors at a university struggles to reach a professor's lab 
where a possible cure to the pathogen resides. 

Enjoy!

RadioResearch

General
Complete name                            : G:Undead Apocalypse (2012) WEBRip
Undead Apocalypse.avi
Format                                   : AVI
Format/Info                              : Audio Video Interleave
File size                                : 959 MiB
Duration                                 : 1h 23mn
Overall bit rate                         : 1 596 Kbps

Video
ID                                       : 0
Format                                   : mp43
Codec ID                                 : mp43
Duration                                 : 1h 23mn
Bit rate                                 : 1 456 Kbps
Width                                    : 640 pixels
Height                                   : 360 pixels
Display aspect ratio                     : 16:9
Frame rate                               : 24.000 fps
Bits/(Pixel*Frame)                       : 0.263
Stream size                              : 874 MiB (91%)

Audio
ID                                       : 1
Format                                   : MPEG Audio
Format version                           : Version 1
Format profile                           : Layer 3
Mode                                     : Joint stereo
Mode extension                           : MS Stereo
Codec ID                                 : 55
Codec ID/Hint                            : MP3
Duration                                 : 1h 23mn
Bit rate mode                            : Constant
Bit rate                                 : 128 Kbps
Channel(s)                               : 2 channels
Sampling rate                            : 44.1 KHz
Compression mode                         : Lossy
Stream size                              : 76.9 MiB (8%)
Alignment                                : Aligned on interleaves
Interleave, duration                     : 26 ms (0.63 video frame)
Writing library                          : LAME3.98.2



-------------------------------------------------------------------------------
Generated with Cool NFO Creator - http://fly.to/coolbeans
-------------------------------------------------------------------------------
